<?xml version="1.0" ?><svg id="Layer_1" style="enable-background:new 0 0 297.838 301.317;" version="1.1" viewBox="0 0 297.838 301.317" xml:space="preserve" xmlns="http://www.w3.org/2000/svg" xmlns:xlink="http://www.w3.org/1999/xlink"><g><path d="M297.838,27.111H157.959v79.646c4.703-1.712,9.709-3.983,14.578-6.975V44.354h110.721v110.722H172.537v-32.662   c-4.57,2.076-9.436,3.869-14.578,5.383v158.671h139.879V27.111z M174.908,182.038c-4.027,0-7.291-3.265-7.291-7.291   c0-4.026,3.264-7.291,7.291-7.291c4.025,0,7.291,3.265,7.291,7.291C182.199,178.773,178.934,182.038,174.908,182.038z"/><path d="M212.252,104.283c0.256,0,0.512-0.098,0.707-0.293l19.214-19.214c0.39-0.392,0.39-1.024,0-1.416   c-0.392-0.389-1.024-0.389-1.415,0l-19.215,19.216c-0.391,0.39-0.391,1.025,0,1.414   C211.739,104.186,211.995,104.283,212.252,104.283z"/><path d="M242.012,94.615l-19.213,19.215c-0.391,0.39-0.391,1.023,0,1.415c0.195,0.195,0.451,0.293,0.707,0.293   c0.256,0,0.512-0.098,0.707-0.293l19.214-19.215c0.39-0.392,0.39-1.025,0-1.415C243.037,94.226,242.403,94.226,242.012,94.615z"/><path d="M204.408,123.206c0.194,0.194,0.45,0.291,0.706,0.291c0.256,0,0.513-0.097,0.708-0.291l45.565-45.567   c0.39-0.39,0.39-1.024,0-1.414c-0.39-0.39-1.024-0.39-1.415,0l-45.564,45.565C204.018,122.182,204.018,122.814,204.408,123.206z"/><path d="M148.492,0H0v78.994h84.438c3.219-9.778,12.434-16.861,23.275-16.861c10.841,0,20.056,7.083,23.275,16.861h17.504V0z    M40.035,54.158h-5.699V41.891h-5.961v12.268h-5.697V24.836h5.697v11.746h5.961V24.836h5.699V54.158z M50.777,54.158H45.08V24.836   h5.697V54.158z M67.221,54.158c-0.391-0.826-1.043-3.785-1.479-7.049c-0.521-3.609-1.436-4.654-3.307-4.654h-0.869v11.703h-5.699   V25.271c1.783-0.348,4.047-0.565,6.221-0.565c3.133,0,5.961,0.479,7.83,2.174c1.785,1.609,2.35,3.568,2.35,6.092   c0,3.131-1.566,5.959-4.523,7.309v0.086c2,0.826,3.002,2.654,3.566,5.83c0.566,3.262,1.35,6.873,1.871,7.961H67.221z M82.01,54.158   h-5.697V24.836h5.697V54.158z M104.5,54.158h-5.221l-4.48-11.137c-1-2.48-2.305-6.221-3.002-8.832h-0.086   c0.174,2.959,0.391,7.483,0.391,13.399v6.57H87.1V24.836h5.219l4.525,11.486c0.914,2.262,2.305,6.047,3.133,8.57h0.086   c-0.174-3.09-0.564-8.18-0.564-13.574v-6.482h5.002V54.158z M125.814,53.375c-1.262,0.521-3.916,1.043-6.047,1.043   c-3.393,0-5.961-0.957-7.875-2.914c-2.521-2.436-3.871-6.787-3.783-11.832c0.129-10.658,6.176-15.096,12.484-15.096   c2.219,0,3.828,0.436,4.742,0.869l-0.957,4.916c-0.871-0.436-1.957-0.652-3.35-0.652c-3.916,0-7.004,2.654-7.004,10.267   c0,7.047,2.74,9.613,5.438,9.613c0.521,0,0.914-0.043,1.131-0.131v-7.09h-2.654v-4.656h7.875V53.375z"/><path d="M62.959,29.144c-0.523,0-1.088,0.043-1.393,0.174v8.744h1.043c2.48,0,3.873-2.002,3.873-4.568   C66.482,30.971,65.482,29.23,62.959,29.144z"/><circle cx="107.713" cy="86.635" r="22.5"/><path d="M201.182,98.731c2.846-3.382,2.408-8.427-0.975-11.271c-3.381-2.841-8.426-2.407-11.268,0.975   c-10.66,12.727-25.926,19.49-38.904,22.892c-6.461,1.705-12.291,2.573-16.496,3.007c-4.203,0.434-6.771,0.432-6.779,0.434   c-0.346,0-0.689,0.023-1.023,0.066H89.689c-0.314-0.041-0.801-0.083-1.439-0.083c-1.773-0.009-4.889,0.347-8.438,2.138   c-5.375,2.664-11.176,8.501-15.232,18.838c-4.107,10.381-6.865,25.387-6.879,48.045c0.002,5.859,0.188,12.228,0.596,19.162   c0.252,4.25,3.777,7.531,7.982,7.531c0.158,0,0.314-0.005,0.475-0.014c4.408-0.261,7.775-4.046,7.516-8.454   c-0.391-6.652-0.568-12.71-0.568-18.226c-0.035-24.22,3.498-37.824,6.967-44.923v150.107c0,6.83,5.537,12.363,12.363,12.363   c6.828,0,12.365-5.533,12.365-12.363v-90.271h4.635v90.271c0,6.83,5.537,12.363,12.363,12.363c6.828,0,12.365-5.533,12.365-12.363   V130.29c4.9-0.486,11.682-1.474,19.354-3.49C168.965,122.872,187.42,115.044,201.182,98.731z"/></g></svg>