<?xml version="1.0" ?><svg id="icons" viewBox="0 0 340 340" xmlns="http://www.w3.org/2000/svg"><title/><path d="M50.862,225.494a16.822,16.822,0,0,0,11.96,5.01c.158,0,.319,0,.478-.007.313-.009.621-.049.931-.075L94.1,259.686a4,4,0,1,0,5.6-5.715l-27.152-26.6a16.45,16.45,0,0,0,6.756-10.7l25.02,22.193c.246,19.863,4.443,34.587,7.991,43.521A23.98,23.98,0,0,0,129.3,296.864l141.25,32.286a24.513,24.513,0,0,0,5.463.62,23.8,23.8,0,0,0,16.876-6.991c14.553-14.544,25.116-32.6,25.559-33.364a4,4,0,0,0-2.511-5.9L223.29,260.944a92.653,92.653,0,0,0,24.742-10.373c.043-.025,4.36-2.468,7.842-1.431a6.528,6.528,0,0,1,3.9,3.779,4,4,0,0,0,7.56-1.2c.011-.084,1.3-8.425,6.933-11.639,2.918-1.666,6.728-1.725,11.339-.2a22.811,22.811,0,0,0,2.379,8.654,4,4,0,0,0,6.947-3.967c-1.066-1.868-1.474-5.605-1.481-7.524a4.012,4.012,0,0,0-.08-.791c-.025-.123-.071-.236-.107-.354s-.069-.261-.12-.385a3.982,3.982,0,0,0-.19-.36c-.058-.108-.107-.22-.175-.323s-.153-.191-.23-.286a3.7,3.7,0,0,0-.26-.314,3.819,3.819,0,0,0-.316-.265c-.093-.076-.177-.161-.278-.229a3.937,3.937,0,0,0-.7-.379c-8.069-3.379-15.032-3.453-20.694-.221a21.432,21.432,0,0,0-8.611,10,13.082,13.082,0,0,0-3.525-1.66c-6.813-2.031-13.494,1.789-14.289,2.265-12.961,8.035-28.261,11.325-39.2,12.668l-94.46-23.018L74.577,201.782,33.782,161.09a16.492,16.492,0,0,0-23.406,23.241Zm151.214,38.515a3.972,3.972,0,0,0,1.925.509c.045,0,.09-.006.135-.007l104.537,25.473c-4.018,6.215-11.921,17.622-21.441,27.135a15.925,15.925,0,0,1-14.9,4.232L131.08,289.065a15.977,15.977,0,0,1-11.33-9.637c-3.1-7.793-6.732-20.345-7.357-37.273ZM15.718,167.2a8.406,8.406,0,0,1,6.109-2.923c.107,0,.213-.006.32-.006a8.4,8.4,0,0,1,5.985,2.48l40.877,40.774a8.787,8.787,0,0,1,.4,11.986,8.671,8.671,0,0,1-4.563,2.755l-.041.008a8.929,8.929,0,0,1-1.739.224,8.662,8.662,0,0,1-6.5-2.616L16.08,178.721A8.536,8.536,0,0,1,15.718,167.2Z"/><path d="M59.437,78.878a16.223,16.223,0,0,0,9.836,5.758l45.882,60.148a24.451,24.451,0,0,1,4.984,14.75v6.613a48.827,48.827,0,0,0,14.393,34.75l13.193,13.192a19.566,19.566,0,0,0,26.112,1.429l21.556-17.29a19.593,19.593,0,0,0,2.386-28.3l-11.69-13.152A48.907,48.907,0,0,0,160.7,141.607l-13.384-3.174a24.417,24.417,0,0,1-13.415-8.516L87.791,72.008a16.148,16.148,0,0,0-3.33-13.593L49.443,16.006a15.9,15.9,0,0,0-24.617,20.13Zm68.2,56.023a32.477,32.477,0,0,0,17.828,11.317l13.384,3.173a40.938,40.938,0,0,1,21.259,12.7L191.8,175.244a11.591,11.591,0,0,1-1.412,16.744l-21.555,17.29a11.579,11.579,0,0,1-15.451-.846l-13.192-13.191a40.878,40.878,0,0,1-12.05-29.094v-6.613a32.5,32.5,0,0,0-6.624-19.6L78.465,83.5a16.124,16.124,0,0,0,4.608-3.017c.239-.225.455-.466.677-.7ZM31.739,20.4a7.9,7.9,0,0,1,11.535.7L78.292,63.509a8.181,8.181,0,0,1-.7,11.143,8.165,8.165,0,0,1-11.937-.808L31.043,31.1A7.941,7.941,0,0,1,31.739,20.4Z"/><path d="M293.335,223.813a11.057,11.057,0,0,0,10.893,9.33,11.217,11.217,0,0,0,1.747-.138,11.052,11.052,0,0,0,9.193-12.64l-.068-.429a11.638,11.638,0,0,1,3.072.823c5.411,2.313,8.155,8,8.155,16.9,0,8.256-2.994,20.955-7.813,33.142a4,4,0,1,0,7.439,2.943c5.244-13.26,8.374-26.749,8.374-36.085,0-15.449-7.076-21.715-13.012-24.251a19.808,19.808,0,0,0-7.494-1.561l-.631-4a11.052,11.052,0,0,0-21.833,3.447Zm6.471-16.042a3.031,3.031,0,0,1,1.991-1.219,3.109,3.109,0,0,1,.478-.038,3.057,3.057,0,0,1,3.013,2.577l1.977,12.522a3.051,3.051,0,0,1-6.028.952l-1.977-12.523A3.03,3.03,0,0,1,299.806,207.771Z"/><path d="M298.323,172.216l10.689,6.818a10.978,10.978,0,0,0,5.921,1.737,11.141,11.141,0,0,0,2.407-.264A11.051,11.051,0,0,0,320.9,160.4l-10.689-6.818a11.051,11.051,0,0,0-11.886,18.635Zm3.37-10.959a3.056,3.056,0,0,1,4.215-.931l10.688,6.817a3.051,3.051,0,1,1-3.282,5.145l-10.689-6.817A3.057,3.057,0,0,1,301.693,161.257Z"/><path d="M240.389,224.155a11.055,11.055,0,0,0,15.1-4.045l6.34-10.979a11.052,11.052,0,0,0-19.142-11.052l-6.339,10.98A11.063,11.063,0,0,0,240.389,224.155Zm2.883-11.1,6.339-10.98a3.052,3.052,0,0,1,5.286,3.052l-6.339,10.979a3.052,3.052,0,0,1-5.286-3.051Z"/><path d="M251.866,164.278a4.012,4.012,0,1,0-2.83-1.18A4,4,0,0,0,251.866,164.278Z"/><path d="M283.246,108.028a4.579,4.579,0,0,0,.37.69,3.62,3.62,0,0,0,.5.6,3.994,3.994,0,0,0,2.83,1.18,4.138,4.138,0,0,0,.78-.08,4.076,4.076,0,0,0,.75-.23,3.862,3.862,0,0,0,.69-.37,3.6,3.6,0,0,0,.609-.5,3.522,3.522,0,0,0,.491-.6,3.828,3.828,0,0,0,.37-.69,4.211,4.211,0,0,0,.23-.75,4.129,4.129,0,0,0,.08-.78,4.047,4.047,0,0,0-.08-.78,3.973,3.973,0,0,0-.23-.75,3.519,3.519,0,0,0-.37-.69,3.6,3.6,0,0,0-.491-.61,4.153,4.153,0,0,0-.609-.5,4.628,4.628,0,0,0-.69-.37,5.025,5.025,0,0,0-.75-.23,4.042,4.042,0,0,0-3.61,1.1,3.694,3.694,0,0,0-.5.61,4.143,4.143,0,0,0-.37.69,3.88,3.88,0,0,0-.221.75,3.387,3.387,0,0,0-.079.78,3.443,3.443,0,0,0,.079.78A4.1,4.1,0,0,0,283.246,108.028Z"/><path d="M201.676,228a3.578,3.578,0,0,0-1.1,1.1,3.828,3.828,0,0,0-.37.69,3.906,3.906,0,0,0-.23.75,4.129,4.129,0,0,0-.08.78,4.047,4.047,0,0,0,.08.78,3.7,3.7,0,0,0,.23.75,3.519,3.519,0,0,0,.37.69,3.634,3.634,0,0,0,.489.61,4.169,4.169,0,0,0,.611.5,4.033,4.033,0,0,0,1.44.6,4.381,4.381,0,0,0,1.56,0,4.659,4.659,0,0,0,.75-.23,4.579,4.579,0,0,0,.69-.37,4.214,4.214,0,0,0,.61-.5,4.279,4.279,0,0,0,.5-.61,4.143,4.143,0,0,0,.37-.69,3.74,3.74,0,0,0,.219-.75,3.333,3.333,0,0,0,.081-.78,3.39,3.39,0,0,0-.081-.78,3.941,3.941,0,0,0-.219-.75,4.579,4.579,0,0,0-.37-.69,4.919,4.919,0,0,0-.5-.61,4.145,4.145,0,0,0-.61-.49,4.033,4.033,0,0,0-1.44-.6,4.093,4.093,0,0,0-1.56,0,4.033,4.033,0,0,0-1.44.6Z"/><path d="M280,254.868a4.917,4.917,0,0,0-.741-.23,4.14,4.14,0,0,0-1.569,0,4.87,4.87,0,0,0-.74.23,3.792,3.792,0,0,0-.691.37,3.728,3.728,0,0,0-.609.5,3.96,3.96,0,1,0,5.05-.5A4.241,4.241,0,0,0,280,254.868Z"/><path d="M302.485,260.618a3.849,3.849,0,0,0-.75.22,4.183,4.183,0,0,0-.69.37,4.326,4.326,0,0,0-.609.5,4.008,4.008,0,0,0,0,5.66,3.672,3.672,0,0,0,.609.49,3.548,3.548,0,0,0,.69.37,3.875,3.875,0,0,0,.75.23,4.049,4.049,0,0,0,.781.08,4.119,4.119,0,0,0,.779-.08,4.03,4.03,0,0,0,.75-.23,3.762,3.762,0,0,0,.69-.37,3.993,3.993,0,0,0-3-7.24Z"/><path d="M318.906,245.058a3.443,3.443,0,0,0,.079-.78,3.5,3.5,0,0,0-.079-.78,4.1,4.1,0,0,0-.22-.75,4.585,4.585,0,0,0-.371-.69,4.1,4.1,0,0,0-.5-.61,3.592,3.592,0,0,0-.609-.49,3.548,3.548,0,0,0-.69-.37,3.875,3.875,0,0,0-.75-.23,4.093,4.093,0,0,0-1.56,0,4.053,4.053,0,0,0-.75.23,3.762,3.762,0,0,0-.69.37,4.043,4.043,0,0,0-.61.49,4.093,4.093,0,0,0-.49.61,3.9,3.9,0,0,0-.371.69,4.021,4.021,0,0,0-.31,1.53,4.127,4.127,0,0,0,.08.78,3.973,3.973,0,0,0,.23.75,3.577,3.577,0,0,0,.371.69,3.639,3.639,0,0,0,.49.61,4.109,4.109,0,0,0,.61.5,4.485,4.485,0,0,0,.69.37,4.019,4.019,0,0,0,.75.22,3.436,3.436,0,0,0,.779.08,3.39,3.39,0,0,0,.781-.08,3.849,3.849,0,0,0,.75-.22,4.183,4.183,0,0,0,.69-.37,4.013,4.013,0,0,0,1.109-1.11,4.147,4.147,0,0,0,.371-.69A3.878,3.878,0,0,0,318.906,245.058Z"/><path d="M176.364,181.492a4,4,0,1,0,5.887-5.416l-11.343-12.333a4,4,0,0,0-5.888,5.416Z"/><path d="M166.548,189.768a4,4,0,0,0,5.888-5.416l-11.345-12.334a4,4,0,0,0-5.887,5.416Z"/><path d="M155.912,198.32A4,4,0,0,0,161.8,192.9L150.456,180.57a4,4,0,0,0-5.888,5.416Z"/></svg>