<?xml version="1.0" ?><svg id="Layer_1" style="enable-background:new 0 0 194.974 261.435;" version="1.1" viewBox="0 0 194.974 261.435" xml:space="preserve" xmlns="http://www.w3.org/2000/svg" xmlns:xlink="http://www.w3.org/1999/xlink"><g><path d="M55.468,82.292l2.628,4.516c1.193,2.049,0.496,4.686-1.553,5.879l-8.933,5.2c0.889,2.758,2.249,6.196,4.048,9.936   l-1.864,1.389c-4.013-8.249-6.458-16.031-5.432-18.389c2.23-3.813,0.947-8.714-2.866-10.944c-3.815-2.23-8.716-0.947-10.944,2.867   c-3.864,6.606-2.888,16.234,2.983,29.435c1.067,2.399,2.19,4.675,3.258,6.721c2.663,5.106,4.967,8.735,5.101,8.945   c0.029,0.045,0.064,0.083,0.093,0.127c0.133,0.199,0.274,0.392,0.424,0.579c0.058,0.072,0.115,0.146,0.175,0.216   c0.194,0.224,0.396,0.441,0.614,0.643c0.032,0.029,0.065,0.055,0.097,0.084c0.198,0.178,0.407,0.346,0.623,0.504   c0.08,0.058,0.161,0.111,0.243,0.166c0.177,0.12,0.36,0.233,0.548,0.339c0.082,0.046,0.164,0.093,0.248,0.136   c0.214,0.111,0.435,0.211,0.661,0.303c0.057,0.023,0.111,0.05,0.168,0.072c0.285,0.108,0.577,0.202,0.878,0.278   c0.055,0.014,0.112,0.022,0.168,0.034c0.196,0.045,0.391,0.091,0.593,0.122c0.034,0.005,0.066,0.003,0.1,0.008   c0.37,0.052,0.743,0.085,1.118,0.085c0.002,0,0.005,0,0.007,0c0.329,0,0.653-0.028,0.974-0.068c0.078-0.01,0.156-0.02,0.235-0.032   c0.322-0.05,0.639-0.114,0.949-0.202c0.044-0.013,0.088-0.029,0.132-0.043c0.291-0.088,0.575-0.193,0.852-0.313   c0.061-0.026,0.121-0.049,0.182-0.077c0.304-0.14,0.598-0.3,0.881-0.477c0.028-0.017,0.058-0.029,0.085-0.046   c0.051-0.032,0.096-0.07,0.146-0.104c0.124-0.083,0.246-0.17,0.366-0.26c0.09-0.068,0.178-0.135,0.264-0.206   c0.105-0.087,0.207-0.178,0.307-0.269c0.087-0.079,0.175-0.157,0.258-0.239c0.095-0.094,0.184-0.194,0.274-0.293   c0.077-0.085,0.157-0.167,0.23-0.255c0.123-0.148,0.238-0.303,0.351-0.46c0.05-0.07,0.101-0.141,0.149-0.213   c0.118-0.176,0.231-0.355,0.335-0.541c0.035-0.062,0.064-0.127,0.097-0.19c0.083-0.158,0.164-0.317,0.237-0.482   c0.033-0.076,0.061-0.154,0.092-0.231c0.062-0.153,0.123-0.307,0.176-0.466c0.031-0.092,0.055-0.185,0.083-0.278   c0.042-0.144,0.084-0.288,0.118-0.435c0.026-0.11,0.046-0.222,0.067-0.333c0.018-0.093,0.041-0.184,0.056-0.279   c0.011-0.072,0.933-6.018,2.871-13.155c2.389-11.86,2.083-26.191,1.631-34.242C59.003,78.615,57.151,80.307,55.468,82.292z"/><path d="M37.463,76.483c1.819,0,3.615,0.487,5.193,1.41c4.841,2.832,6.516,9.029,3.797,13.905c-0.167,0.617,0.004,1.96,0.488,3.817   l8.445-4.916c0.951-0.553,1.276-1.784,0.722-2.735L41.898,63.549c-0.553-0.951-1.784-1.276-2.735-0.722L28.52,69.021   c-0.951,0.553-1.276,1.784-0.722,2.735l3.824,6.57C33.318,77.158,35.345,76.483,37.463,76.483z M40.22,64.992l0.503,0.864   l-7.238,4.213l-0.503-0.864L40.22,64.992z M30.064,71.67c-0.365-0.627-0.152-1.43,0.474-1.795s1.43-0.152,1.795,0.474   c0.365,0.626,0.152,1.43-0.474,1.795C31.232,72.508,30.428,72.296,30.064,71.67z"/><path d="M17.828,47.229h6.663l8.572,15.23l-3.564-15.235c9.801-0.053,17.73-8.01,17.73-17.823V17.828   C47.229,7.982,39.247,0,29.401,0H17.828C7.982,0,0,7.982,0,17.828V29.4C0,39.247,7.982,47.229,17.828,47.229z M23.615,8.274   c8.472,0,15.34,6.868,15.34,15.34s-6.868,15.34-15.34,15.34s-15.34-6.868-15.34-15.34S15.143,8.274,23.615,8.274z"/><path d="M15.763,26.499h2.173l0.429,2.219h1.622l-2.066-10.206h-2.157l-1.959,10.206h1.546L15.763,26.499z M16.835,20.47   l0.842,4.575h-1.668L16.835,20.47z"/><path d="M22.65,24.586h1.041c1.025,0,1.668-0.199,2.142-0.658c0.551-0.52,0.811-1.285,0.811-2.387c0-1.086-0.26-1.852-0.811-2.372   c-0.474-0.459-1.117-0.658-2.142-0.658h-2.616v10.206h1.576V24.586z M22.65,19.965h0.689c1.27,0,1.668,0.383,1.668,1.576   c0,1.209-0.398,1.591-1.668,1.591H22.65V19.965z"/><path d="M29.431,24.586h1.041c1.025,0,1.668-0.199,2.142-0.658c0.551-0.52,0.811-1.285,0.811-2.387c0-1.086-0.26-1.852-0.811-2.372   c-0.474-0.459-1.117-0.658-2.142-0.658h-2.616v10.206h1.576V24.586z M29.431,19.965h0.689c1.27,0,1.668,0.383,1.668,1.576   c0,1.209-0.398,1.591-1.668,1.591h-0.689V19.965z"/><path d="M117.726,95.188l23.427,9.18c0.955,0.374,1.942,0.553,2.916,0.553c2.865,0,5.609-1.546,7.042-4.202l17-31.5   c2.099-3.888,0.647-8.741-3.241-10.839c-3.888-2.099-8.741-0.647-10.839,3.241l-13.636,25.267l-22.59-8.851   C117.556,82.481,117.386,88.626,117.726,95.188z"/><path d="M62.42,111.887v20.245v18.94v98c0,6.83,5.537,12.363,12.365,12.363c6.826,0,12.363-5.533,12.363-12.363V158.8h4.635v90.271   c0,6.83,5.537,12.363,12.365,12.363c6.826,0,12.363-5.533,12.363-12.363v-98v-18.94v-21.865   c-2.47-12.111-2.147-25.706-1.659-33.389l-2.109-0.826c-1.159-0.694-2.51-1.101-3.96-1.101h-7.453   c-2.109,23.622-10.778,29.635-10.778,29.635h-2.173c0,0-8.669-6.013-10.778-29.635h-7.453c-0.282,0-0.559,0.017-0.833,0.046   c-0.623-0.065-1.264-0.065-1.916,0.026c-1.189,0.166-2.328,0.469-3.421,0.884C64.483,83.719,64.973,98.979,62.42,111.887z    M79.78,104.461H68.447v-2.833H79.78V104.461z"/><polygon points="90.86,77.075 90.86,80.866 97.581,83.02 97.581,74.921  "/><polygon points="88.541,77.075 81.821,74.921 81.821,83.02 88.541,80.866  "/><circle cx="89.465" cy="87.334" r="1.704"/><circle cx="89.465" cy="93.419" r="1.704"/><path d="M93.07,68.961c10.712-1.726,18.895-11.01,18.895-22.209c0-12.427-10.074-22.5-22.5-22.5c-12.428,0-22.5,10.073-22.5,22.5   c0,11.199,8.182,20.483,18.895,22.209c1.174,0.189,2.378,0.291,3.605,0.291C90.693,69.252,91.896,69.151,93.07,68.961z"/><path d="M133.474,54.836h59.375c1.169,0,2.125-0.956,2.125-2.125s-0.956-2.125-2.125-2.125h-59.375   c-1.169,0-2.125,0.956-2.125,2.125S132.306,54.836,133.474,54.836z"/><path d="M188.662,45.586h-3.42c-0.071-11.175-8.441-20.375-19.257-21.756c0.317-0.476,0.503-1.046,0.503-1.661c0-1.657-1.343-3-3-3   c-1.657,0-3,1.343-3,3c0,0.584,0.174,1.125,0.463,1.586c-11.112,1.105-19.797,10.446-19.869,21.831h-3.42v2.125h51V45.586z"/></g></svg>