<?xml version="1.0" encoding="UTF-8"?>
<svg width="64" height="64" version="1.1" viewBox="0 0 16.933 16.933" xmlns="http://www.w3.org/2000/svg">
<g transform="translate(0 -280.07)" shape-rendering="auto">
<path d="m5.6885 283.24c-0.14611 0-0.26459 0.11849-0.26459 0.26458v1.3224c0 0.58166 0.47619 1.0588 1.0578 1.0588h5.2e-4v1.0583h-0.26562a0.26454 0.26465 0 0 0-0.0253 0 0.26454 0.26465 0 0 0-0.23823 0.26406v3.7052a0.26454 0.26465 0 0 0 0.26354 0.26406h1.0583a0.26454 0.26465 0 0 0 0.26562-0.26406v-3.7052a0.26454 0.26465 0 0 0-0.26562-0.26406h-0.26354v-1.0583c0.58138-2.7e-4 1.0583-0.47736 1.0583-1.0588v-1.3224c0-0.14609-0.1185-0.26458-0.26459-0.26458-0.14611 0-0.26458 0.11849-0.26458 0.26458v1.3224c0 0.29752-0.23173 0.5294-0.52917 0.52969v-1.8474a0.26461 0.26461 0 0 0-0.26975-0.26923 0.26461 0.26461 0 0 0-0.25941 0.26923v1.8474h-5.2e-4c-0.29768 0-0.52865-0.23199-0.52865-0.52969v-1.3224c0-0.14609-0.1185-0.26458-0.26458-0.26458zm0.79375 4.2318h0.52916v3.176h-0.52916z" color="#000000" color-rendering="auto" dominant-baseline="auto" image-rendering="auto" solid-color="#000000" style="font-feature-settings:normal;font-variant-alternates:normal;font-variant-caps:normal;font-variant-ligatures:normal;font-variant-numeric:normal;font-variant-position:normal;isolation:auto;mix-blend-mode:normal;paint-order:normal;shape-padding:0;text-decoration-color:#000000;text-decoration-line:none;text-decoration-style:solid;text-indent:0;text-orientation:mixed;text-transform:none;white-space:normal"/>
<path d="m11.244 283.24c-0.65514 0-1.1882 0.51041-1.5472 1.2284-0.359 0.71796-0.56845 1.6787-0.56845 2.7404v1.588c5.1e-4 0.14542 0.11812 0.26356 0.26355 0.26406h0.53019v1.8531a0.26454 0.26454 0 0 0 0.26355 0.26355h1.0583a0.26454 0.26454 0 0 0 0.26561-0.26355v-2.1167-5.1e-4 -5.2932c-5.2e-4 -0.14618-0.11942-0.26411-0.2656-0.26355zm-0.26407 0.57929v4.7119h-1.3245v-1.3224c0-0.99065 0.20303-1.8825 0.51367-2.5037 0.23427-0.46851 0.5191-0.76575 0.81081-0.88574zm-0.52865 5.2415h0.52916v1.5875h-0.52916z" color="#000000" color-rendering="auto" dominant-baseline="auto" image-rendering="auto" solid-color="#000000" style="font-feature-settings:normal;font-variant-alternates:normal;font-variant-caps:normal;font-variant-ligatures:normal;font-variant-numeric:normal;font-variant-position:normal;isolation:auto;mix-blend-mode:normal;paint-order:normal;shape-padding:0;text-decoration-color:#000000;text-decoration-line:none;text-decoration-style:solid;text-indent:0;text-orientation:mixed;text-transform:none;white-space:normal"/>
<path d="m4.2333 281.39c-0.87479 0-1.5874 0.7126-1.5874 1.5875v11.111a0.26458 0.26461 0 0 0 2e-3 0.0294c0.016 0.86156 0.72157 1.5591 1.5864 1.5591h9.7876c0.14615 5.6e-4 0.26509-0.11784 0.26561-0.26407v-13.76a0.26458 0.26461 0 0 0-0.26561-0.26355zm0 0.52917h9.5241v10.583h-9.5236c-0.40667 0-0.77747 0.15478-1.0588 0.40721v-9.9322c0-0.59088 0.46748-1.0583 1.0583-1.0583zm5.2e-4 11.112h9.5236v0.48937h5.2e-4v1.6268h-9.5241c-0.59082 0-1.0588-0.46774-1.0588-1.0588s0.46799-1.0573 1.0588-1.0573z" color="#000000" color-rendering="auto" dominant-baseline="auto" image-rendering="auto" solid-color="#000000" style="font-feature-settings:normal;font-variant-alternates:normal;font-variant-caps:normal;font-variant-ligatures:normal;font-variant-numeric:normal;font-variant-position:normal;isolation:auto;mix-blend-mode:normal;paint-order:normal;shape-padding:0;text-decoration-color:#000000;text-decoration-line:none;text-decoration-style:solid;text-indent:0;text-orientation:mixed;text-transform:none;white-space:normal"/>
</g>
</svg>
