<svg xmlns="http://www.w3.org/2000/svg" width="375" viewBox="0 0 375 375" height="375" version="1.0"><path fill="#FFF" d="M 187.507812 344.40625 C 147.492188 344.40625 109.8125 328.828125 81.539062 300.496094 C 53.203125 272.21875 37.628906 234.539062 37.628906 194.523438 C 37.628906 154.507812 53.203125 116.828125 81.539062 88.554688 C 109.8125 60.21875 147.492188 44.644531 187.507812 44.644531 C 227.523438 44.644531 265.203125 60.21875 293.476562 88.554688 C 321.8125 116.886719 337.386719 154.507812 337.386719 194.523438 C 337.386719 234.539062 321.8125 272.21875 293.476562 300.496094 C 265.203125 328.828125 227.523438 344.40625 187.507812 344.40625 M 187.507812 53.628906 C 149.886719 53.628906 114.484375 68.304688 87.886719 94.902344 C 61.289062 121.5 46.613281 156.90625 46.613281 194.523438 C 46.613281 232.144531 61.289062 267.546875 87.886719 294.144531 C 114.484375 320.742188 149.886719 335.417969 187.507812 335.417969 C 225.128906 335.417969 260.53125 320.742188 287.128906 294.144531 C 313.726562 267.546875 328.402344 232.144531 328.402344 194.523438 C 328.402344 156.90625 313.726562 121.5 287.128906 94.902344 C 260.53125 68.304688 225.128906 53.628906 187.507812 53.628906"/><path fill="#FFF" d="M 218.164062 154.71875 C 217.558594 155.28125 216.613281 155.246094 216.050781 154.640625 L 203.910156 141.535156 L 203.078125 142.300781 L 215.222656 155.40625 C 215.785156 156.011719 215.75 156.957031 215.144531 157.519531 C 214.539062 158.082031 213.59375 158.046875 213.027344 157.441406 L 200.886719 144.332031 L 200.058594 145.101562 L 212.203125 158.207031 C 212.761719 158.8125 212.726562 159.757812 212.121094 160.320312 C 211.519531 160.878906 210.570312 160.84375 210.007812 160.238281 L 197.867188 147.132812 L 197.039062 147.898438 L 209.179688 161.003906 C 209.742188 161.613281 209.707031 162.558594 209.101562 163.121094 C 208.496094 163.679688 207.550781 163.644531 206.988281 163.039062 L 194.847656 149.933594 L 194.839844 149.9375 L 194.460938 149.542969 C 194.125 149.175781 193.820312 148.808594 193.546875 148.433594 L 193.535156 148.421875 C 192.507812 147.027344 191.921875 145.574219 191.925781 143.878906 C 191.929688 142.09375 192.554688 140.410156 193.695312 139.023438 C 192.929688 138.210938 189.511719 134.878906 185.394531 130.882812 C 180.472656 136.113281 176.125 140.757812 175.25 141.777344 C 176.523438 143.1875 177.273438 144.945312 177.363281 146.832031 C 177.449219 148.632812 176.898438 150.199219 175.882812 151.722656 L 175.886719 151.722656 L 175.867188 151.742188 C 175.597656 152.152344 175.292969 152.554688 174.957031 152.960938 L 174.574219 153.394531 L 174.566406 153.390625 L 173.078125 154.945312 C 164.875 162.109375 160.796875 162.730469 158.410156 160.683594 C 155.613281 158.289062 154.664062 154.125 160.9375 144.515625 L 162.316406 142.675781 L 162.320312 142.671875 L 162.46875 142.492188 C 164.148438 140.457031 165.765625 139.304688 168.09375 139.011719 C 169.863281 138.792969 171.613281 139.171875 173.160156 140.074219 C 174.03125 139.015625 177.992188 133.824219 182.417969 128 C 176.332031 122.105469 169.753906 115.753906 168.046875 114.058594 C 166.847656 112.914062 166.1875 112.136719 166.1875 112.136719 C 165.023438 110.882812 165.105469 108.914062 166.371094 107.742188 C 167.636719 106.566406 169.605469 106.636719 170.769531 107.890625 C 170.769531 107.890625 171.59375 108.761719 172.316406 109.609375 L 172.320312 109.605469 C 173.382812 110.828125 179.3125 117.941406 184.9375 124.683594 C 190.210938 117.730469 195.445312 110.820312 196.445312 109.5625 L 196.445312 109.570312 C 197.171875 108.636719 198 107.671875 198 107.671875 C 199.171875 106.28125 201.253906 106.113281 202.652344 107.292969 C 204.050781 108.476562 204.234375 110.558594 203.0625 111.941406 C 203.0625 111.941406 202.402344 112.800781 201.1875 114.070312 C 199.578125 115.824219 193.679688 122.078125 187.894531 128.222656 C 191.664062 132.722656 194.824219 136.480469 195.589844 137.324219 C 197.003906 136.40625 198.636719 135.972656 200.3125 136.105469 C 202.519531 136.277344 204.089844 137.289062 205.761719 139.132812 L 205.910156 139.300781 L 205.917969 139.304688 L 218.246094 152.609375 C 218.804688 153.214844 218.769531 154.160156 218.164062 154.71875"/><g fill="#FFF"><g><g><path d="M 12.53125 -5.40625 C 12.53125 -6.207031 12.242188 -6.820312 11.671875 -7.25 C 11.109375 -7.6875 10.09375 -8.140625 8.625 -8.609375 C 7.15625 -9.085938 5.988281 -9.5625 5.125 -10.03125 C 2.78125 -11.289062 1.609375 -12.992188 1.609375 -15.140625 C 1.609375 -16.253906 1.921875 -17.242188 2.546875 -18.109375 C 3.179688 -18.984375 4.085938 -19.664062 5.265625 -20.15625 C 6.441406 -20.65625 7.757812 -20.90625 9.21875 -20.90625 C 10.6875 -20.90625 11.992188 -20.632812 13.140625 -20.09375 C 14.296875 -19.5625 15.191406 -18.8125 15.828125 -17.84375 C 16.472656 -16.875 16.796875 -15.769531 16.796875 -14.53125 L 12.546875 -14.53125 C 12.546875 -15.46875 12.25 -16.195312 11.65625 -16.71875 C 11.0625 -17.25 10.222656 -17.515625 9.140625 -17.515625 C 8.109375 -17.515625 7.300781 -17.296875 6.71875 -16.859375 C 6.144531 -16.421875 5.859375 -15.84375 5.859375 -15.125 C 5.859375 -14.457031 6.195312 -13.894531 6.875 -13.4375 C 7.550781 -12.988281 8.546875 -12.5625 9.859375 -12.15625 C 12.273438 -11.4375 14.035156 -10.535156 15.140625 -9.453125 C 16.242188 -8.378906 16.796875 -7.039062 16.796875 -5.4375 C 16.796875 -3.65625 16.117188 -2.253906 14.765625 -1.234375 C 13.421875 -0.222656 11.601562 0.28125 9.3125 0.28125 C 7.726562 0.28125 6.285156 -0.00390625 4.984375 -0.578125 C 3.679688 -1.160156 2.6875 -1.957031 2 -2.96875 C 1.320312 -3.976562 0.984375 -5.148438 0.984375 -6.484375 L 5.234375 -6.484375 C 5.234375 -4.210938 6.59375 -3.078125 9.3125 -3.078125 C 10.320312 -3.078125 11.109375 -3.28125 11.671875 -3.6875 C 12.242188 -4.101562 12.53125 -4.675781 12.53125 -5.40625 Z M 12.53125 -5.40625" transform="translate(89.397 217.23)"/></g></g></g><g fill="#FFF"><g><g><path d="M 17.359375 -17.171875 L 11.046875 -17.171875 L 11.046875 0 L 6.796875 0 L 6.796875 -17.171875 L 0.5625 -17.171875 L 0.5625 -20.625 L 17.359375 -20.625 Z M 17.359375 -17.171875" transform="translate(109.25 217.23)"/></g></g></g><g fill="#FFF"><g><g><path d="M 13.484375 -4.25 L 6.03125 -4.25 L 4.609375 0 L 0.09375 0 L 7.78125 -20.625 L 11.703125 -20.625 L 19.421875 0 L 14.90625 0 Z M 7.171875 -7.6875 L 12.328125 -7.6875 L 9.75 -15.40625 Z M 7.171875 -7.6875" transform="translate(129.216 217.23)"/></g></g></g><g fill="#FFF"><g><g><path d="M 14.25 -8.421875 L 6.09375 -8.421875 L 6.09375 0 L 1.84375 0 L 1.84375 -20.625 L 15.265625 -20.625 L 15.265625 -17.171875 L 6.09375 -17.171875 L 6.09375 -11.859375 L 14.25 -11.859375 Z M 14.25 -8.421875" transform="translate(150.754 217.23)"/></g></g></g><g fill="#FFF"><g><g><path d="M 9.46875 -7.546875 L 6.09375 -7.546875 L 6.09375 0 L 1.84375 0 L 1.84375 -20.625 L 9.5 -20.625 C 11.9375 -20.625 13.816406 -20.078125 15.140625 -18.984375 C 16.460938 -17.898438 17.125 -16.367188 17.125 -14.390625 C 17.125 -12.984375 16.816406 -11.804688 16.203125 -10.859375 C 15.597656 -9.921875 14.675781 -9.175781 13.4375 -8.625 L 17.90625 -0.203125 L 17.90625 0 L 13.34375 0 Z M 6.09375 -10.984375 L 9.515625 -10.984375 C 10.578125 -10.984375 11.398438 -11.253906 11.984375 -11.796875 C 12.578125 -12.335938 12.875 -13.085938 12.875 -14.046875 C 12.875 -15.015625 12.597656 -15.773438 12.046875 -16.328125 C 11.492188 -16.890625 10.644531 -17.171875 9.5 -17.171875 L 6.09375 -17.171875 Z M 6.09375 -10.984375" transform="translate(195.83 217.23)"/></g></g></g><g fill="#FFF"><g><g><path d="M 18.78125 -9.84375 C 18.78125 -7.8125 18.421875 -6.03125 17.703125 -4.5 C 16.984375 -2.96875 15.953125 -1.785156 14.609375 -0.953125 C 13.273438 -0.128906 11.75 0.28125 10.03125 0.28125 C 8.320312 0.28125 6.796875 -0.128906 5.453125 -0.953125 C 4.109375 -1.773438 3.066406 -2.945312 2.328125 -4.46875 C 1.597656 -5.988281 1.226562 -7.742188 1.21875 -9.734375 L 1.21875 -10.75 C 1.21875 -12.78125 1.582031 -14.566406 2.3125 -16.109375 C 3.039062 -17.648438 4.070312 -18.832031 5.40625 -19.65625 C 6.75 -20.488281 8.28125 -20.90625 10 -20.90625 C 11.71875 -20.90625 13.242188 -20.488281 14.578125 -19.65625 C 15.910156 -18.832031 16.941406 -17.648438 17.671875 -16.109375 C 18.410156 -14.566406 18.78125 -12.785156 18.78125 -10.765625 Z M 14.46875 -10.78125 C 14.46875 -12.9375 14.082031 -14.578125 13.3125 -15.703125 C 12.539062 -16.828125 11.4375 -17.390625 10 -17.390625 C 8.570312 -17.390625 7.46875 -16.832031 6.6875 -15.71875 C 5.914062 -14.613281 5.523438 -12.988281 5.515625 -10.84375 L 5.515625 -9.84375 C 5.515625 -7.738281 5.898438 -6.101562 6.671875 -4.9375 C 7.453125 -3.78125 8.570312 -3.203125 10.03125 -3.203125 C 11.445312 -3.203125 12.535156 -3.757812 13.296875 -4.875 C 14.066406 -6 14.457031 -7.628906 14.46875 -9.765625 Z M 14.46875 -10.78125" transform="translate(216.363 217.23)"/></g></g></g><g fill="#FFF"><g><g><path d="M 7.390625 -20.625 L 12.6875 -5.671875 L 17.953125 -20.625 L 23.53125 -20.625 L 23.53125 0 L 19.265625 0 L 19.265625 -5.640625 L 19.703125 -15.359375 L 14.125 0 L 11.21875 0 L 5.671875 -15.34375 L 6.09375 -5.640625 L 6.09375 0 L 1.84375 0 L 1.84375 -20.625 Z M 7.390625 -20.625" transform="translate(260.457 217.23)"/></g></g></g><g fill="#FFF"><g><g><path d="M 7.296875 -1.125 C 7.003906 -0.707031 6.597656 -0.394531 6.078125 -0.1875 C 5.554688 0.0195312 4.953125 0.125 4.265625 0.125 C 3.578125 0.125 2.960938 -0.0351562 2.421875 -0.359375 C 1.878906 -0.691406 1.460938 -1.160156 1.171875 -1.765625 C 0.878906 -2.367188 0.726562 -3.066406 0.71875 -3.859375 L 0.71875 -4.59375 C 0.71875 -5.882812 1.015625 -6.882812 1.609375 -7.59375 C 2.210938 -8.300781 3.054688 -8.65625 4.140625 -8.65625 C 5.035156 -8.65625 5.753906 -8.425781 6.296875 -7.96875 C 6.835938 -7.507812 7.171875 -6.863281 7.296875 -6.03125 L 6.171875 -6.03125 C 5.953125 -7.15625 5.28125 -7.71875 4.15625 -7.71875 C 3.394531 -7.71875 2.820312 -7.453125 2.4375 -6.921875 C 2.050781 -6.398438 1.851562 -5.632812 1.84375 -4.625 L 1.84375 -3.9375 C 1.84375 -2.976562 2.0625 -2.210938 2.5 -1.640625 C 2.9375 -1.078125 3.53125 -0.796875 4.28125 -0.796875 C 4.695312 -0.796875 5.0625 -0.84375 5.375 -0.9375 C 5.695312 -1.03125 5.960938 -1.191406 6.171875 -1.421875 L 6.171875 -3.328125 L 4.203125 -3.328125 L 4.203125 -4.25 L 7.296875 -4.25 Z M 7.296875 -1.125" transform="translate(145.544 260.675)"/></g></g></g><g fill="#FFF"><g><g><path d="M 5.703125 -2.234375 L 2.125 -2.234375 L 1.328125 0 L 0.171875 0 L 3.421875 -8.53125 L 4.40625 -8.53125 L 7.671875 0 L 6.515625 0 Z M 2.46875 -3.15625 L 5.375 -3.15625 L 3.921875 -7.140625 Z M 2.46875 -3.15625" transform="translate(154.558 260.675)"/></g></g></g><g fill="#FFF"><g><g><path d="M 3.5 -3.796875 C 2.539062 -4.078125 1.835938 -4.421875 1.390625 -4.828125 C 0.953125 -5.234375 0.734375 -5.734375 0.734375 -6.328125 C 0.734375 -6.992188 1 -7.546875 1.53125 -7.984375 C 2.070312 -8.429688 2.773438 -8.65625 3.640625 -8.65625 C 4.222656 -8.65625 4.742188 -8.539062 5.203125 -8.3125 C 5.660156 -8.082031 6.015625 -7.769531 6.265625 -7.375 C 6.523438 -6.976562 6.65625 -6.539062 6.65625 -6.0625 L 5.515625 -6.0625 C 5.515625 -6.582031 5.347656 -6.988281 5.015625 -7.28125 C 4.691406 -7.570312 4.234375 -7.71875 3.640625 -7.71875 C 3.085938 -7.71875 2.65625 -7.59375 2.34375 -7.34375 C 2.03125 -7.101562 1.875 -6.769531 1.875 -6.34375 C 1.875 -5.988281 2.019531 -5.691406 2.3125 -5.453125 C 2.613281 -5.210938 3.117188 -4.992188 3.828125 -4.796875 C 4.535156 -4.597656 5.085938 -4.378906 5.484375 -4.140625 C 5.890625 -3.898438 6.1875 -3.617188 6.375 -3.296875 C 6.570312 -2.972656 6.671875 -2.597656 6.671875 -2.171875 C 6.671875 -1.472656 6.398438 -0.914062 5.859375 -0.5 C 5.316406 -0.0820312 4.597656 0.125 3.703125 0.125 C 3.109375 0.125 2.554688 0.0078125 2.046875 -0.21875 C 1.546875 -0.445312 1.15625 -0.753906 0.875 -1.140625 C 0.601562 -1.535156 0.46875 -1.976562 0.46875 -2.46875 L 1.59375 -2.46875 C 1.59375 -1.957031 1.785156 -1.550781 2.171875 -1.25 C 2.554688 -0.945312 3.066406 -0.796875 3.703125 -0.796875 C 4.296875 -0.796875 4.75 -0.914062 5.0625 -1.15625 C 5.375 -1.40625 5.53125 -1.738281 5.53125 -2.15625 C 5.53125 -2.570312 5.382812 -2.894531 5.09375 -3.125 C 4.800781 -3.351562 4.269531 -3.578125 3.5 -3.796875 Z M 3.5 -3.796875" transform="translate(163.226 260.675)"/></g></g></g><g fill="#FFF"><g><g><path d="M 6.890625 -7.609375 L 4.140625 -7.609375 L 4.140625 0 L 3.03125 0 L 3.03125 -7.609375 L 0.28125 -7.609375 L 0.28125 -8.53125 L 6.890625 -8.53125 Z M 6.890625 -7.609375" transform="translate(171.185 260.675)"/></g></g></g><g fill="#FFF"><g><g><path d="M 4.125 -3.453125 L 2.109375 -3.453125 L 2.109375 0 L 0.984375 0 L 0.984375 -8.53125 L 3.8125 -8.53125 C 4.769531 -8.53125 5.503906 -8.3125 6.015625 -7.875 C 6.535156 -7.4375 6.796875 -6.800781 6.796875 -5.96875 C 6.796875 -5.4375 6.648438 -4.972656 6.359375 -4.578125 C 6.078125 -4.179688 5.679688 -3.882812 5.171875 -3.6875 L 7.171875 -0.078125 L 7.171875 0 L 5.96875 0 Z M 2.109375 -4.375 L 3.84375 -4.375 C 4.40625 -4.375 4.847656 -4.515625 5.171875 -4.796875 C 5.503906 -5.085938 5.671875 -5.476562 5.671875 -5.96875 C 5.671875 -6.488281 5.515625 -6.890625 5.203125 -7.171875 C 4.890625 -7.453125 4.4375 -7.597656 3.84375 -7.609375 L 2.109375 -7.609375 Z M 2.109375 -4.375" transform="translate(179.185 260.675)"/></g></g></g><g fill="#FFF"><g><g><path d="M 7.546875 -3.984375 C 7.546875 -3.148438 7.40625 -2.421875 7.125 -1.796875 C 6.84375 -1.179688 6.441406 -0.707031 5.921875 -0.375 C 5.410156 -0.0390625 4.8125 0.125 4.125 0.125 C 3.457031 0.125 2.863281 -0.0390625 2.34375 -0.375 C 1.820312 -0.707031 1.414062 -1.175781 1.125 -1.78125 C 0.84375 -2.394531 0.695312 -3.109375 0.6875 -3.921875 L 0.6875 -4.53125 C 0.6875 -5.351562 0.828125 -6.078125 1.109375 -6.703125 C 1.398438 -7.328125 1.804688 -7.804688 2.328125 -8.140625 C 2.847656 -8.484375 3.445312 -8.65625 4.125 -8.65625 C 4.800781 -8.65625 5.398438 -8.488281 5.921875 -8.15625 C 6.441406 -7.820312 6.84375 -7.34375 7.125 -6.71875 C 7.40625 -6.09375 7.546875 -5.363281 7.546875 -4.53125 Z M 6.4375 -4.546875 C 6.4375 -5.554688 6.234375 -6.332031 5.828125 -6.875 C 5.421875 -7.414062 4.851562 -7.6875 4.125 -7.6875 C 3.40625 -7.6875 2.84375 -7.414062 2.4375 -6.875 C 2.03125 -6.332031 1.820312 -5.582031 1.8125 -4.625 L 1.8125 -3.984375 C 1.8125 -3.003906 2.015625 -2.234375 2.421875 -1.671875 C 2.835938 -1.117188 3.40625 -0.84375 4.125 -0.84375 C 4.851562 -0.84375 5.414062 -1.101562 5.8125 -1.625 C 6.21875 -2.15625 6.425781 -2.914062 6.4375 -3.90625 Z M 6.4375 -4.546875" transform="translate(187.414 260.675)"/></g></g></g><g fill="#FFF"><g><g><path d="M 7.546875 0 L 6.421875 0 L 2.125 -6.578125 L 2.125 0 L 0.984375 0 L 0.984375 -8.53125 L 2.125 -8.53125 L 6.421875 -1.921875 L 6.421875 -8.53125 L 7.546875 -8.53125 Z M 7.546875 0" transform="translate(196.504 260.675)"/></g></g></g><g fill="#FFF"><g><g><path d="M 2.4375 -8.53125 L 5.234375 -1.578125 L 8.015625 -8.53125 L 9.484375 -8.53125 L 9.484375 0 L 8.359375 0 L 8.359375 -3.328125 L 8.46875 -6.90625 L 5.65625 0 L 4.796875 0 L 2 -6.890625 L 2.109375 -3.328125 L 2.109375 0 L 0.984375 0 L 0.984375 -8.53125 Z M 2.4375 -8.53125" transform="translate(214.988 260.675)"/></g></g></g><g fill="#FFF"><g><g><path d="M 3.59375 -4.25 L 5.8125 -8.53125 L 7.09375 -8.53125 L 4.15625 -3.1875 L 4.15625 0 L 3.03125 0 L 3.03125 -3.1875 L 0.09375 -8.53125 L 1.375 -8.53125 Z M 3.59375 -4.25" transform="translate(226.305 260.675)"/></g></g></g><g fill="#FFF"><g><g><path d="M 4.5625 -8.53125 L 5.703125 -8.53125 L 5.703125 -2.484375 C 5.703125 -1.671875 5.453125 -1.03125 4.953125 -0.5625 C 4.460938 -0.101562 3.8125 0.125 3 0.125 C 2.15625 0.125 1.492188 -0.09375 1.015625 -0.53125 C 0.546875 -0.96875 0.3125 -1.578125 0.3125 -2.359375 L 1.4375 -2.359375 C 1.4375 -1.867188 1.566406 -1.484375 1.828125 -1.203125 C 2.097656 -0.929688 2.488281 -0.796875 3 -0.796875 C 3.46875 -0.796875 3.84375 -0.941406 4.125 -1.234375 C 4.414062 -1.535156 4.5625 -1.945312 4.5625 -2.46875 Z M 4.5625 -8.53125" transform="translate(142.579 274.925)"/></g></g></g><g fill="#FFF"><g><g><path d="M 0.984375 0 L 0.984375 -8.53125 L 3.78125 -8.53125 C 4.707031 -8.53125 5.398438 -8.335938 5.859375 -7.953125 C 6.328125 -7.578125 6.5625 -7.015625 6.5625 -6.265625 C 6.5625 -5.859375 6.445312 -5.5 6.21875 -5.1875 C 6 -4.882812 5.691406 -4.648438 5.296875 -4.484375 C 5.765625 -4.359375 6.128906 -4.113281 6.390625 -3.75 C 6.660156 -3.394531 6.796875 -2.96875 6.796875 -2.46875 C 6.796875 -1.695312 6.546875 -1.09375 6.046875 -0.65625 C 5.554688 -0.21875 4.859375 0 3.953125 0 Z M 2.109375 -3.984375 L 2.109375 -0.921875 L 3.96875 -0.921875 C 4.5 -0.921875 4.914062 -1.054688 5.21875 -1.328125 C 5.519531 -1.597656 5.671875 -1.972656 5.671875 -2.453125 C 5.671875 -3.472656 5.109375 -3.984375 3.984375 -3.984375 Z M 2.109375 -4.890625 L 3.8125 -4.890625 C 4.300781 -4.890625 4.691406 -5.007812 4.984375 -5.25 C 5.285156 -5.5 5.4375 -5.835938 5.4375 -6.265625 C 5.4375 -6.734375 5.300781 -7.070312 5.03125 -7.28125 C 4.757812 -7.5 4.34375 -7.609375 3.78125 -7.609375 L 2.109375 -7.609375 Z M 2.109375 -4.890625" transform="translate(159.13 274.925)"/></g></g></g><g fill="#FFF"><g><g><path d="M 1.03125 0.734375 L 0.109375 0.734375 L 3.671875 -8.53125 L 4.59375 -8.53125 Z M 1.03125 0.734375" transform="translate(175.4 274.925)"/></g></g></g><g fill="#FFF"><g><g><path d="M 2.109375 -3.34375 L 2.109375 0 L 0.984375 0 L 0.984375 -8.53125 L 4.140625 -8.53125 C 5.066406 -8.53125 5.796875 -8.289062 6.328125 -7.8125 C 6.859375 -7.34375 7.125 -6.710938 7.125 -5.921875 C 7.125 -5.097656 6.863281 -4.460938 6.34375 -4.015625 C 5.832031 -3.566406 5.09375 -3.34375 4.125 -3.34375 Z M 2.109375 -4.265625 L 4.140625 -4.265625 C 4.742188 -4.265625 5.203125 -4.40625 5.515625 -4.6875 C 5.835938 -4.96875 6 -5.375 6 -5.90625 C 6 -6.414062 5.835938 -6.820312 5.515625 -7.125 C 5.203125 -7.4375 4.765625 -7.597656 4.203125 -7.609375 L 2.109375 -7.609375 Z M 2.109375 -4.265625" transform="translate(181.185 274.925)"/></g></g></g><g fill="#FFF"><g><g><path d="M 5.8125 -3.9375 L 2.109375 -3.9375 L 2.109375 -0.921875 L 6.40625 -0.921875 L 6.40625 0 L 0.984375 0 L 0.984375 -8.53125 L 6.359375 -8.53125 L 6.359375 -7.609375 L 2.109375 -7.609375 L 2.109375 -4.859375 L 5.8125 -4.859375 Z M 5.8125 -3.9375" transform="translate(189.595 274.925)"/></g></g></g><g fill="#FFF"><g><g><path d="M 2.125 -0.921875 L 6.171875 -0.921875 L 6.171875 0 L 0.984375 0 L 0.984375 -8.53125 L 2.125 -8.53125 Z M 2.125 -0.921875" transform="translate(214.756 274.925)"/></g></g></g><g fill="#FFF"><g><g><path d="M 2.828125 -2.6875 L 3 -1.5625 L 3.234375 -2.578125 L 4.921875 -8.53125 L 5.875 -8.53125 L 7.515625 -2.578125 L 7.75 -1.546875 L 7.9375 -2.703125 L 9.265625 -8.53125 L 10.390625 -8.53125 L 8.328125 0 L 7.296875 0 L 5.53125 -6.21875 L 5.40625 -6.875 L 5.265625 -6.21875 L 3.453125 0 L 2.421875 0 L 0.359375 -8.53125 L 1.484375 -8.53125 Z M 2.828125 -2.6875" transform="translate(137.587 289.175)"/></g></g></g><g fill="#FFF"><g><g><path d="M 7.546875 0 L 6.421875 0 L 6.421875 -3.9375 L 2.109375 -3.9375 L 2.109375 0 L 0.984375 0 L 0.984375 -8.53125 L 2.109375 -8.53125 L 2.109375 -4.859375 L 6.421875 -4.859375 L 6.421875 -8.53125 L 7.546875 -8.53125 Z M 7.546875 0" transform="translate(149.073 289.175)"/></g></g></g><g fill="#FFF"><g><g><path d="M 7 -8.53125 L 7 -2.734375 C 6.988281 -1.929688 6.734375 -1.269531 6.234375 -0.75 C 5.734375 -0.238281 5.054688 0.046875 4.203125 0.109375 L 3.890625 0.125 C 2.960938 0.125 2.21875 -0.125 1.65625 -0.625 C 1.101562 -1.132812 0.828125 -1.832031 0.828125 -2.71875 L 0.828125 -8.53125 L 1.9375 -8.53125 L 1.9375 -2.75 C 1.9375 -2.132812 2.101562 -1.65625 2.4375 -1.3125 C 2.78125 -0.96875 3.265625 -0.796875 3.890625 -0.796875 C 4.535156 -0.796875 5.023438 -0.96875 5.359375 -1.3125 C 5.691406 -1.65625 5.859375 -2.132812 5.859375 -2.75 L 5.859375 -8.53125 Z M 7 -8.53125" transform="translate(196.47 289.175)"/></g></g></g><g fill="#FFF"><g><g><path d="M 0.984375 0 L 0.984375 -8.53125 L 3.40625 -8.53125 C 4.144531 -8.53125 4.796875 -8.363281 5.359375 -8.03125 C 5.929688 -7.707031 6.375 -7.242188 6.6875 -6.640625 C 7 -6.035156 7.15625 -5.335938 7.15625 -4.546875 L 7.15625 -4.015625 C 7.15625 -3.203125 7 -2.492188 6.6875 -1.890625 C 6.382812 -1.285156 5.941406 -0.820312 5.359375 -0.5 C 4.785156 -0.175781 4.117188 -0.0078125 3.359375 0 Z M 2.109375 -7.609375 L 2.109375 -0.921875 L 3.296875 -0.921875 C 4.160156 -0.921875 4.832031 -1.1875 5.3125 -1.71875 C 5.800781 -2.257812 6.046875 -3.03125 6.046875 -4.03125 L 6.046875 -4.53125 C 6.046875 -5.5 5.816406 -6.25 5.359375 -6.78125 C 4.910156 -7.320312 4.265625 -7.597656 3.421875 -7.609375 Z M 2.109375 -7.609375" transform="translate(233.618 289.175)"/></g></g></g></svg>