<?xml version="1.0" ?><svg data-name="Слой 1" id="Слой_1" viewBox="0 0 128 128" xmlns="http://www.w3.org/2000/svg"><title/><path d="M62,124H59.92A28,28,0,0,0,34,98.08V92h5a2,2,0,0,0,0-4H25a2,2,0,0,0,0,4h5v6.08A28,28,0,0,0,4.08,124H2a2,2,0,0,0,0,4H62a2,2,0,0,0,0-4ZM32,102a24,24,0,0,1,23.91,22H8.09A24,24,0,0,1,32,102Z"/><path d="M127.45,30.87,98.55.62A2,2,0,0,0,97.15,0a2,2,0,0,0-1.43.55L84.29,11.47,23.8,69.27a8.5,8.5,0,0,0,5.68,14.65h.2a8.45,8.45,0,0,0,5.87-2.36L55.31,62.69a12.58,12.58,0,0,0,2.11,2.94L71.52,80.4a15,15,0,0,0,10.54,4.65h.35a14.91,14.91,0,0,0,10.38-4.17l14.77-14.11A8.58,8.58,0,0,0,110.13,61a8.37,8.37,0,0,0-2.3-6.24,7.9,7.9,0,0,0-4.16-2.26l4.1-3.92A10.6,10.6,0,0,0,111,42.28l2.17,2.27a2,2,0,0,0,1.4.61h0a2,2,0,0,0,1.38-.55l11.43-10.92A2,2,0,0,0,127.45,30.87ZM99.19,30l6,6.31a6.66,6.66,0,0,1-.21,9.41l-9.19,8.77v0L81,68.6a2,2,0,1,0,2.76,2.89l14.8-14.14c1.3-1.22,4.65-1.64,6.36.16a4.37,4.37,0,0,1,1.19,3.29,4.58,4.58,0,0,1-1.33,3.08L90,78a11,11,0,0,1-15.61-.35l-.07-.09a9.21,9.21,0,0,1-2.62-6.68,12,12,0,0,1,3.7-8.12,2,2,0,1,0-2.76-2.89,15.74,15.74,0,0,0-4.92,10.76,9.15,9.15,0,0,1-2.44-6.47A11.93,11.93,0,0,1,69,56a2,2,0,1,0-2.76-2.89,15.78,15.78,0,0,0-4.93,10.79l-1-1.06a6.94,6.94,0,0,1-2-6.71,14.35,14.35,0,0,1,4.29-6.85,2,2,0,0,0-2.76-2.89,18.42,18.42,0,0,0-5.44,8.87,11.16,11.16,0,0,0-.26,3l-.11.08L32.79,78.68a4.51,4.51,0,0,1-6.23-6.52L85.61,15.75,99.19,30Zm15.45,10.38-6.52-6.83h0l-6-6.32h0L88.5,13,97,4.83l26.13,27.35Z"/></svg>