<?xml version="1.0" ?><svg enable-background="new 0 0 32 32" id="Glyph" version="1.1" viewBox="0 0 32 32" xml:space="preserve" xmlns="http://www.w3.org/2000/svg" xmlns:xlink="http://www.w3.org/1999/xlink"><path d="M16.587,2.021c-3.009-0.214-5.671,1.22-7.252,3.864C8.813,6.76,8.955,7.941,9.759,8.569  c0.981,0.767,2.372,0.472,2.973-0.568c0.592-1.022,1.768-2.264,3.928-1.952C18.612,6.331,20,8.112,20,10.084  c0,2.442-1.704,4.2-3.766,4.543l-5.727,0.954C9.06,15.823,8,17.075,8,18.541V29c0,0.552,0.448,1,1,1h14c0.552,0,1-0.448,1-1  c0-6.207,0-11.488,0-18.734C24,6.166,20.677,2.312,16.587,2.021z M16,27c-0.305,0-5-2.531-5-6.562C11,19.091,12.119,18,13.5,18  c1.231,0,2.292,0.903,2.5,1.887C16.208,18.903,17.269,18,18.5,18c1.381,0,2.5,1.091,2.5,2.438C21,24.469,16.305,27,16,27z"/></svg>