<?xml version="1.0" encoding="iso-8859-1"?>
<!-- Generator: Adobe Illustrator 18.0.0, SVG Export Plug-In . SVG Version: 6.00 Build 0)  -->
<!DOCTYPE svg PUBLIC "-//W3C//DTD SVG 1.1//EN" "http://www.w3.org/Graphics/SVG/1.1/DTD/svg11.dtd">
<svg version="1.1" width="100px" id="Capa_1" xmlns="http://www.w3.org/2000/svg" xmlns:xlink="http://www.w3.org/1999/xlink" x="0px" y="0px"
	 viewBox="0 0 425.773 425.773" style="enable-background:new 0 0 425.773 425.773;" xml:space="preserve">
<path d="M408.932,297.012c-1.575-2.252-3.26-4.359-5.051-6.316c2.25-3.305,3.962-7.022,5.026-11.037
	c3.147-11.93-0.009-24.432-8.435-33.441c-5.438-5.82-11.85-10.504-19.17-14.016c-1.107-18.672-16.65-33.521-35.597-33.521
	c-18.665,0-34.027,14.418-35.534,32.701c-2.203,0.973-4.314,2.049-6.334,3.219l-21.687-6.572c-0.002,0.008-0.003,0.018-0.005,0.025
	l-40.472-12.266c-1.304-3.945-4.198-7.361-8.244-10.25c4.452-4.949,8.21-9.957,11.068-14.098c6.78-9.832,12.42-20.42,16.326-30.631
	c1.926-4.309,3.566-8.635,4.894-12.879c5.26-4.408,8.355-10.992,8.355-17.898v-16.918c0-4.854-1.527-9.602-4.336-13.537V75.76
	c0-41.777-33.987-75.76-75.759-75.76h-24.56c-41.775,0-75.763,33.982-75.763,75.76v23.818c-2.808,3.934-4.334,8.686-4.334,13.535
	v16.918c0,6.9,3.096,13.482,8.354,17.896c1.326,4.238,2.968,8.564,4.893,12.885c3.909,10.213,9.552,20.797,16.327,30.621
	c2.859,4.143,6.618,9.152,11.07,14.104c-4.048,2.889-6.941,6.305-8.246,10.25l-54.016,16.371
	C29.676,243.088,6.886,407.402,6.886,407.402H6.89c-0.113,0.73-0.192,1.471-0.192,2.236c0,7.916,6.419,14.336,14.339,14.336h313.507
	c3.514,1.162,7.265,1.799,11.163,1.799c19.662,0,35.659-15.994,35.659-35.656v-3.006c7.149-3.205,13.469-7.408,18.906-12.574
	c12.302-11.684,18.805-26.932,18.805-44.092C419.076,317.892,415.662,306.647,408.932,297.012z M167.162,274.697
	c-0.205,1.984-1.604,3.643-3.528,4.178c-0.431,0.119-0.869,0.178-1.303,0.178c-1.499,0-2.943-0.695-3.877-1.932l-13.646-18.1
	c-0.636-0.844-0.979-1.871-0.979-2.928l0.018-29.019c0.001-1.699,0.893-3.279,2.352-4.156c1.458-0.879,3.27-0.928,4.773-0.133
	c3.974,2.1,7.939,3.512,11.789,4.197c2.318,0.41,4.008,2.426,4.008,4.781v12.105c0.691,0.271,1.32,0.701,1.829,1.266
	c0.92,1.021,1.364,2.385,1.225,3.752L167.162,274.697z M218.568,259.022l-13.626,18.088c-0.932,1.234-2.379,1.934-3.881,1.934
	c-0.431,0-0.869-0.059-1.299-0.176c-1.922-0.537-3.322-2.197-3.527-4.184l-2.661-25.797c-0.142-1.367,0.305-2.73,1.226-3.752
	c0.507-0.564,1.135-0.994,1.825-1.266v-12.105c0-2.355,1.691-4.371,4.01-4.781c3.847-0.686,7.812-2.098,11.784-4.195
	c1.507-0.795,3.318-0.744,4.775,0.135c1.458,0.879,2.352,2.457,2.352,4.16l0.002,29.02
	C219.548,257.152,219.205,258.178,218.568,259.022z M194.741,201.289h-26.087c-5.764,0-16.893-7.711-28.77-24.936
	c-9.375-13.586-15.889-28.625-17.422-40.23l-0.262-2.008l-4.714-3.064c-1.378-0.895-2.209-2.426-2.209-4.07v-7.994
	c0-2.68,2.174-4.855,4.855-4.855h1.983v-8.658c0-1.842,1.041-3.523,2.688-4.348c6.686-3.336,19.951-8.936,33.688-8.936
	c10.961,0,20.048,3.646,27.012,10.836c8.676,8.965,18.673,13.512,29.722,13.512c6.252,0,12.717-1.475,19.211-4.385
	c1.502-0.674,3.243-0.541,4.626,0.354c0.645,0.42,1.174,0.979,1.553,1.625h2.647c2.682,0,4.857,2.176,4.857,4.855v7.994
	c0,1.645-0.834,3.176-2.212,4.072l-4.712,3.063l-0.262,2c-1.536,11.611-8.049,26.652-17.425,40.244
	C211.635,193.58,200.507,201.289,194.741,201.289z M384.285,357.705c-6.555,6.23-15.328,10.387-26.134,12.393v20.02
	c0,6.873-5.564,12.441-12.445,12.441c-6.877,0-12.443-5.568-12.443-12.441v-19.354c-15.767-2.135-27.564-8.967-35.056-20.34
	c-2.293-3.482-2.693-7.879-1.064-11.717c1.634-3.836,5.08-6.604,9.181-7.357l9.395-1.748c4.797-0.897,9.684,1.115,12.479,5.123
	c3.528,5.08,9.515,7.654,17.777,7.654c12.708,0,12.708-5.057,12.708-6.719c0-2.41-0.898-4.16-2.843-5.516
	c-1.974-1.379-5.584-2.611-10.729-3.656c-20.656-4.215-33.974-9.68-39.565-16.254c-5.687-6.66-8.441-14.107-8.441-22.77
	c0-9.406,3.105-17.867,9.228-25.164c5.927-7.057,14.998-11.641,26.931-13.637v-14.328c0-6.871,5.566-12.441,12.443-12.441
	c6.881,0,12.445,5.57,12.445,12.441v14.596c10.686,2.037,19.03,6.357,25.36,13.133c2.924,3.127,4.041,7.533,2.95,11.674
	c-1.099,4.139-4.233,7.424-8.318,8.695l-6.44,2.02c-4.674,1.469-9.781,0.047-13.03-3.617c-3.239-3.654-8.056-5.51-14.298-5.51
	c-5.029,0-11.032,1.199-11.032,6.906c0,1.615,0.619,3.074,1.786,4.217c1.232,1.191,4.814,2.461,10.647,3.766
	c13.455,2.941,23.289,5.633,29.168,7.975c5.972,2.375,11,6.451,14.959,12.117c3.95,5.654,5.959,12.432,5.959,20.139
	C395.862,341.238,391.969,350.406,384.285,357.705z"/>
<g>
</g>
<g>
</g>
<g>
</g>
<g>
</g>
<g>
</g>
<g>
</g>
<g>
</g>
<g>
</g>
<g>
</g>
<g>
</g>
<g>
</g>
<g>
</g>
<g>
</g>
<g>
</g>
<g>
</g>
</svg>
