<?xml version="1.0" ?><svg id="Layer_1" style="enable-background:new 0 0 250.586 244.226;" version="1.1" viewBox="0 0 250.586 244.226" xml:space="preserve" xmlns="http://www.w3.org/2000/svg" xmlns:xlink="http://www.w3.org/1999/xlink"><g><g><path d="M176.053,10.291C175.748,4.558,171.017,0,165.208,0s-10.54,4.558-10.846,10.291c3.253-1.682,6.938-2.638,10.846-2.638    C169.115,7.653,172.801,8.61,176.053,10.291z"/><path d="M134.679,88.123c1.477-2.519,2.948-4.643,4.37-6.433l-4.801,23.597h61.919l-4.819-23.683    c1.422,1.788,2.893,3.908,4.37,6.43c0.007,0.012,0.014,0.023,0.021,0.035c3.353,5.733,7.958,4.869,9.292,4.47    c5.517-1.661,7.008-7.169,6.937-25.628c-0.037-9.392-0.538-18.473-0.559-18.855c-0.2-3.585-3.278-6.322-6.853-6.128    c-3.584,0.2-6.327,3.268-6.128,6.852c0.4,7.171,0.597,15.201,0.524,21.713c-2.921-3.18-5.736-5.447-8.243-7.071    c-3.635-2.355-6.608-3.347-8.303-3.757l-15.366,9.086l4.957-10.986c-2.137-0.246-4.457-0.417-6.789-0.417    c-2.333,0-4.654,0.171-6.792,0.418l4.957,10.985l-15.383-9.096c-1.75,0.406-4.699,1.376-8.264,3.657    c-7.822,5.005-18.612,16.344-26.241,41.976h13.64C129.5,98.142,132.097,92.527,134.679,88.123z M184.919,81.083h-12.333v-4h12.333    V81.083z"/><path d="M165.208,52.854c11.874,0,21.5-9.626,21.5-21.5s-9.626-21.5-21.5-21.5c-11.874,0-21.5,9.626-21.5,21.5    S153.334,52.854,165.208,52.854z M175.873,41.669c-2.262,3.664-6.301,6.118-10.914,6.118c-4.612,0-8.652-2.455-10.914-6.118    H175.873z"/><path d="M108.717,109.286c-0.345,2.319-1.348,4.413-2.81,6.094h144.679v-6.094H108.717z"/><path d="M152.728,164.726c0-4.4-3.6-8-8-8h-2.167v-23.167c0-5.514-4.486-10-10-10h-22.302c-5.514,0-10,4.486-10,10v23.167h-2.167    c-4.4,0-8,3.6-8,8v64.333c0,4.4,3.6,8,8,8h0.083v4.167c0,1.65,1.35,3,3,3c1.65,0,3-1.35,3-3v-4.167h34.469v4.167    c0,1.65,1.35,3,3,3c1.65,0,3-1.35,3-3v-4.167h0.083c4.4,0,8-3.6,8-8V164.726z M104.259,133.559c0-3.309,2.691-6,6-6h22.302    c3.309,0,6,2.691,6,6v23.167h-34.302V133.559z M98.467,173.809h45.885v2.917H98.467V173.809z"/><path d="M67.253,40.46c0-12.427-10.072-22.5-22.5-22.5c-12.426,0-22.5,10.073-22.5,22.5c0,5.509,1.983,10.553,5.27,14.465h34.46    C65.27,51.014,67.253,45.97,67.253,40.46z"/><path d="M70.799,90.776c0.684,0.389,1.427,0.668,2.2,0.846v18.976l1.86,0.851c6.873,3.142,19.181,3.922,21.578,4.047    c0.142,0.007,0.282,0.011,0.422,0.011c4.227,0,7.757-3.312,7.98-7.582c0.231-4.411-3.158-8.174-7.568-8.408    c-3.257-0.172-8.089-0.692-11.769-1.458c-0.813-6.091-1.818-11.518-3-16.188c0-0.001-0.001-0.002-0.001-0.003    C76.835,59.47,67.304,57.042,62.663,57.325H24.572c-2.063-0.075-5.363,0.326-8.964,2.778c-0.265,0.18-0.53,0.363-0.798,0.567    C6.305,67.128,1.468,81.713,0.024,105.258c-0.229,3.728,1.16,7.221,3.909,9.838c2.542,2.42,6.26,3.914,10.373,4.802    c0.066,0.014,0.134,0.026,0.2,0.04V89.142h2.2v142.304c0,6.83,5.537,12.363,12.363,12.363c6.828,0,12.365-5.533,12.365-12.363    v-90.272h4.635v90.272c0,6.83,5.537,12.363,12.363,12.363c5.863,0,10.762-4.083,12.034-9.56c0.209-0.902,0.331-1.838,0.331-2.804    V90.776z"/></g></g></svg>