<svg xmlns="http://www.w3.org/2000/svg" width="375" viewBox="0 0 375 375" height="375" version="1.0"><path fill="#FFF" d="M 187.507812 344.40625 C 147.492188 344.40625 109.8125 328.828125 81.539062 300.496094 C 53.203125 272.21875 37.628906 234.539062 37.628906 194.523438 C 37.628906 154.507812 53.203125 116.828125 81.539062 88.554688 C 109.8125 60.21875 147.492188 44.644531 187.507812 44.644531 C 227.523438 44.644531 265.203125 60.21875 293.476562 88.554688 C 321.8125 116.886719 337.386719 154.507812 337.386719 194.523438 C 337.386719 234.539062 321.8125 272.21875 293.476562 300.496094 C 265.203125 328.828125 227.523438 344.40625 187.507812 344.40625 M 187.507812 53.628906 C 149.886719 53.628906 114.484375 68.304688 87.886719 94.902344 C 61.289062 121.5 46.613281 156.90625 46.613281 194.523438 C 46.613281 232.144531 61.289062 267.546875 87.886719 294.144531 C 114.484375 320.742188 149.886719 335.417969 187.507812 335.417969 C 225.128906 335.417969 260.53125 320.742188 287.128906 294.144531 C 313.726562 267.546875 328.402344 232.144531 328.402344 194.523438 C 328.402344 156.90625 313.726562 121.5 287.128906 94.902344 C 260.53125 68.304688 225.128906 53.628906 187.507812 53.628906"/><path fill="#FFF" d="M 246.859375 232.554688 C 245.691406 233.636719 243.871094 233.566406 242.789062 232.398438 L 219.394531 207.148438 L 217.796875 208.628906 L 241.195312 233.875 C 242.273438 235.042969 242.207031 236.867188 241.035156 237.945312 C 239.871094 239.027344 238.050781 238.957031 236.964844 237.792969 L 213.570312 212.542969 L 211.976562 214.023438 L 235.371094 239.273438 C 236.453125 240.4375 236.382812 242.257812 235.21875 243.339844 C 234.054688 244.421875 232.226562 244.351562 231.148438 243.183594 L 207.753906 217.9375 L 206.160156 219.414062 L 229.550781 244.660156 C 230.632812 245.832031 230.5625 247.652344 229.394531 248.734375 C 228.230469 249.8125 226.410156 249.742188 225.328125 248.578125 L 201.933594 223.328125 L 201.925781 223.339844 L 201.191406 222.574219 C 200.546875 221.867188 199.960938 221.167969 199.429688 220.445312 L 199.40625 220.417969 C 197.429688 217.734375 196.300781 214.9375 196.304688 211.664062 C 196.316406 208.230469 197.523438 204.984375 199.71875 202.3125 C 198.242188 200.75 191.660156 194.332031 183.726562 186.632812 C 174.25 196.710938 165.871094 205.652344 164.183594 207.617188 C 166.636719 210.339844 168.078125 213.722656 168.253906 217.359375 C 168.421875 220.828125 167.363281 223.84375 165.402344 226.78125 L 165.40625 226.78125 L 165.375 226.820312 C 164.851562 227.605469 164.265625 228.378906 163.621094 229.160156 L 162.882812 230.003906 L 162.871094 229.992188 L 160 232.988281 C 144.199219 246.785156 136.34375 247.980469 131.742188 244.042969 C 126.355469 239.429688 124.527344 231.40625 136.613281 212.894531 L 139.269531 209.351562 L 139.273438 209.34375 L 139.566406 208.992188 C 142.800781 205.074219 145.910156 202.855469 150.398438 202.292969 C 153.804688 201.867188 157.183594 202.597656 160.15625 204.335938 C 161.839844 202.300781 169.46875 192.296875 177.992188 181.078125 C 166.265625 169.722656 153.597656 157.484375 150.304688 154.21875 C 147.996094 152.015625 146.722656 150.519531 146.722656 150.519531 C 144.480469 148.097656 144.644531 144.308594 147.078125 142.050781 C 149.519531 139.789062 153.308594 139.917969 155.554688 142.339844 C 155.554688 142.339844 157.140625 144.019531 158.535156 145.648438 L 158.539062 145.640625 C 160.585938 147.996094 172.007812 161.703125 182.84375 174.683594 C 193.007812 161.296875 203.089844 147.984375 205.011719 145.558594 L 205.015625 145.570312 C 206.414062 143.773438 208.011719 141.914062 208.011719 141.914062 C 210.265625 139.238281 214.277344 138.914062 216.972656 141.191406 C 219.667969 143.464844 220.023438 147.472656 217.761719 150.140625 C 217.761719 150.140625 216.492188 151.796875 214.152344 154.238281 C 211.054688 157.617188 199.6875 169.667969 188.546875 181.507812 C 195.800781 190.175781 201.894531 197.417969 203.367188 199.039062 C 206.09375 197.273438 209.242188 196.4375 212.46875 196.691406 C 216.71875 197.023438 219.746094 198.976562 222.960938 202.523438 L 223.253906 202.847656 L 223.261719 202.851562 L 247.011719 228.488281 C 248.09375 229.652344 248.023438 231.472656 246.859375 232.554688"/></svg>