<?xml version="1.0" encoding="iso-8859-1"?>
<!-- Generator: Adobe Illustrator 19.0.0, SVG Export Plug-In . SVG Version: 6.00 Build 0)  -->
<svg  version="1.1" id="Layer_1" xmlns="http://www.w3.org/2000/svg" xmlns:xlink="http://www.w3.org/1999/xlink" x="0px" y="0px"
	 viewBox="0 0 512 512" style="enable-background:new 0 0 512 512;" xml:space="preserve">
<g>
	<g>
		<path d="M363.429,0H26.18c-5.633,0-10.199,4.566-10.199,10.199v491.602c0,5.633,4.566,10.199,10.199,10.199h337.249
			c5.633,0,10.199-4.566,10.199-10.199V10.199C373.628,4.566,369.062,0,363.429,0z M353.23,491.602H36.38V20.398H353.23V491.602z"/>
	</g>
</g>
<g>
	<g>
		<path d="M298.411,86.691h-3.786c-5.633,0-10.199,4.566-10.199,10.199c0,5.633,4.566,10.199,10.199,10.199h3.786
			c5.633,0,10.199-4.566,10.199-10.199C308.611,91.257,304.044,86.691,298.411,86.691z"/>
	</g>
</g>
<g>
	<g>
		<path d="M249.994,86.691H91.198c-5.633,0-10.199,4.566-10.199,10.199c0,5.633,4.566,10.199,10.199,10.199h158.795
			c5.633,0,10.199-4.566,10.199-10.199C260.193,91.257,255.627,86.691,249.994,86.691z"/>
	</g>
</g>
<g>
	<g>
		<path d="M298.411,166.246H91.198c-5.633,0-10.199,4.566-10.199,10.199s4.566,10.199,10.199,10.199h207.213
			c5.633,0,10.199-4.566,10.199-10.199S304.044,166.246,298.411,166.246z"/>
	</g>
</g>
<g>
	<g>
		<path d="M298.411,245.801H91.198c-5.633,0-10.199,4.566-10.199,10.199c0,5.633,4.566,10.199,10.199,10.199h207.213
			c5.633,0,10.199-4.566,10.199-10.199C308.611,250.367,304.044,245.801,298.411,245.801z"/>
	</g>
</g>
<g>
	<g>
		<path d="M298.411,326.41H91.198c-5.633,0-10.199,4.566-10.199,10.199c0,5.633,4.566,10.199,10.199,10.199h207.213
			c5.633,0,10.199-4.566,10.199-10.199C308.611,330.976,304.044,326.41,298.411,326.41z"/>
	</g>
</g>
<g>
	<g>
		<path d="M298.411,405.965H91.198c-5.633,0-10.199,4.566-10.199,10.199c0,5.633,4.566,10.199,10.199,10.199h207.213
			c5.633,0,10.199-4.566,10.199-10.199C308.611,410.531,304.044,405.965,298.411,405.965z"/>
	</g>
</g>
<g>
	<g>
		<path d="M464.401,109.292V91.283c0-5.094-3.737-9.303-8.617-10.065V49.466c0-5.633-4.566-10.199-10.199-10.199h-25.602
			c-5.633,0-10.199,4.566-10.199,10.199v31.752c-4.879,0.762-8.617,4.971-8.617,10.065v328.134c0,13.566,9.045,25.053,21.418,28.764
			v14.353c0,5.633,4.566,10.199,10.199,10.199s10.199-4.566,10.199-10.199v-14.353c12.374-3.71,21.418-15.199,21.418-28.764V130.465
			c6.587,2.791,11.219,9.321,11.219,16.913v73.434c0,5.633,4.566,10.199,10.199,10.199c5.633,0,10.199-4.566,10.199-10.199v-73.434
			C496.019,128.448,482.372,112.653,464.401,109.292z M430.182,59.665h5.204v21.418h-5.204V59.665z M421.565,101.482h22.438v242.741
			h-22.438V101.482z M444.003,419.417L444.003,419.417c0,5.31-4.32,9.63-9.63,9.63h-3.178c-5.311,0-9.63-4.32-9.63-9.63v-54.795
			h22.438V419.417z"/>
	</g>
</g>
<g>
</g>
<g>
</g>
<g>
</g>
<g>
</g>
<g>
</g>
<g>
</g>
<g>
</g>
<g>
</g>
<g>
</g>
<g>
</g>
<g>
</g>
<g>
</g>
<g>
</g>
<g>
</g>
<g>
</g>
</svg>
