<?xml version="1.0" ?><svg id="Layer_1" style="enable-background:new 0 0 139.149 271.664;" version="1.1" viewBox="0 0 139.149 271.664" xml:space="preserve" xmlns="http://www.w3.org/2000/svg" xmlns:xlink="http://www.w3.org/1999/xlink"><g><g><path d="M122.852,91.449c-5.6-5.263-11.072-6.175-13.893-6.244c-0.166-0.011-0.331-0.025-0.5-0.025h-6.475    c-0.907,9.119-5.69,53.862-12.842,61.014C81.991,139.042,77.208,94.299,76.3,85.18h-6.475c-0.63,0-1.238,0.083-1.824,0.225    c-5.659,0.977-10.916,5.73-16.899,11.153c-2.823,2.558-7.698,6.976-10.579,8.525c-0.809-2.251-2.073-8.021-1.634-21.633    c0.143-4.416-3.322-8.111-7.738-8.254c-4.423-0.162-8.112,3.322-8.253,7.738c-0.733,22.715,2.396,33.566,10.799,37.455    c1.886,0.873,3.764,1.259,5.629,1.259c7.916-0.001,15.593-6.957,22.521-13.235c0.081-0.073,0.167-0.151,0.25-0.227v151.114    c0,6.83,5.537,12.363,12.363,12.363c6.828,0,12.365-5.533,12.365-12.363v-90.271h4.635v90.271c0,6.83,5.537,12.363,12.363,12.363    c6.828,0,12.365-5.533,12.365-12.363V109.274c4.47,9.298,8.452,28.029,6.397,63.166c-0.258,4.41,3.108,8.195,7.519,8.453    c0.159,0.01,0.317,0.014,0.475,0.014c4.205,0,7.73-3.281,7.979-7.533C141.029,131.127,135.745,103.563,122.852,91.449z"/><path d="M89.143,79.481c12.428,0,22.5-10.073,22.5-22.5c0-12.427-10.072-22.5-22.5-22.5c-12.426,0-22.5,10.073-22.5,22.5    C66.643,69.408,76.717,79.481,89.143,79.481z M101.008,62.905c0,0-6.287,19.564-21.908,5.93    C79.099,68.835,93.192,69.535,101.008,62.905z"/><polygon points="88.143,89.551 81.143,85.551 81.143,94.551 88.143,90.551   "/><polygon points="90.143,90.551 97.143,94.551 97.143,85.551 90.143,89.551   "/><circle cx="89.143" cy="98.051" r="2"/><circle cx="89.143" cy="108.932" r="2"/><circle cx="89.143" cy="119.813" r="2"/><circle cx="89.143" cy="130.694" r="2"/><path d="M61.944,69.63c0-1.75-1.418-3.168-3.166-3.168H3.166C1.417,66.462,0,67.88,0,69.63c0,1.748,1.417,3.166,3.166,3.166    h55.612C60.526,72.796,61.944,71.378,61.944,69.63z"/><path d="M54.64,63.794c0-9.499-8.685-17.371-20.028-18.776c0.633-0.797,1.027-1.792,1.027-2.888c0-2.578-2.089-4.668-4.666-4.668    c-2.577,0-4.667,2.09-4.667,4.668c0,1.096,0.394,2.091,1.028,2.888C15.99,46.424,7.306,54.295,7.306,63.794H54.64z"/><path d="M24.151,2.38c0.967-0.928,0.037-3.088-0.941-2.148c-2.441,2.344-4.283,5.684-4.682,9.703    c-0.429,4.332,2.77,7.113,3.129,11.18c0.242,2.738-1.037,5.736-2.502,7.56c-0.883,1.096,0.442,2.852,1.318,1.758    c2.455-3.053,3.527-7.471,2.717-11.805c-0.807-4.315-3.883-6.391-2.219-11.311C21.618,5.404,22.874,3.607,24.151,2.38z"/><path d="M32.591,21.115c0.242,2.738-1.037,5.736-2.502,7.56c-0.883,1.096,0.439,2.852,1.318,1.758    c2.455-3.053,3.527-7.471,2.717-11.805c-0.807-4.315-3.883-6.391-2.221-11.311c0.647-1.914,1.905-3.711,3.18-4.938    c0.967-0.928,0.037-3.088-0.941-2.148c-2.44,2.344-4.283,5.684-4.682,9.703C29.032,14.267,32.229,17.048,32.591,21.115z"/><path d="M46.015,2.38c0.969-0.928,0.039-3.088-0.939-2.148c-2.441,2.344-4.283,5.684-4.682,9.703    c-0.43,4.332,2.768,7.113,3.129,11.18c0.242,2.738-1.037,5.736-2.502,7.56c-0.883,1.096,0.441,2.852,1.318,1.758    c2.455-3.053,3.527-7.471,2.717-11.805c-0.805-4.315-3.883-6.391-2.219-11.311C43.483,5.404,44.739,3.607,46.015,2.38z"/></g></g></svg>